<svg width="27" height="27" viewBox="0 0 27 27" fill="none" xmlns="http://www.w3.org/2000/svg">
<path d="M26.2 11.0512C26.325 10.4262 25.825 9.67619 25.2 9.67619L18.075 8.67619L14.825 2.17619C14.7 1.92619 14.575 1.80119 14.325 1.67619C13.7 1.30119 12.95 1.55119 12.575 2.17619L9.44995 8.67619L2.32495 9.67619C1.94995 9.67619 1.69995 9.80119 1.57495 10.0512C1.07495 10.5512 1.07495 11.3012 1.57495 11.8012L6.69995 16.8012L5.44995 23.9262C5.44995 24.1762 5.44995 24.4262 5.57495 24.6762C5.94995 25.3012 6.69995 25.5512 7.32495 25.1762L13.7 21.8012L20.075 25.1762C20.2 25.3012 20.45 25.3012 20.7 25.3012H20.95C21.575 25.1762 22.075 24.5512 21.95 23.8012L20.7 16.6762L25.825 11.6762C26.075 11.5512 26.2 11.3012 26.2 11.0512Z" stroke="black" stroke-width="1.5"/>
</svg>
