<svg width="25" height="25" viewBox="0 0 25 25" fill="none" xmlns="http://www.w3.org/2000/svg">
<path d="M5.43037 18.8627L5.11055 19.1825L3.1466 21.1465C3.14658 21.1465 3.14657 21.1465 3.14655 21.1465C3.07667 21.2165 3.02909 21.3055 3.00981 21.4025C2.99052 21.4995 3.00043 21.6 3.03826 21.6913C3.0761 21.7827 3.14017 21.8608 3.22237 21.9157C3.30455 21.9706 3.40116 22 3.49999 22L5.43037 18.8627ZM5.43037 18.8627L5.14411 18.5125M5.43037 18.8627L5.14411 18.5125M5.14411 18.5125C3.77891 16.8425 3.02271 14.7575 2.99986 12.6006C2.97702 10.4437 3.68889 8.34319 5.01841 6.64458C6.34793 4.94598 8.21593 3.7504 10.3152 3.25448C12.4145 2.75855 14.62 2.99181 16.5691 3.91588C18.5182 4.83996 20.0948 6.39983 21.0396 8.33897C21.9844 10.2781 22.2411 12.481 21.7676 14.5855C21.2941 16.6899 20.1185 18.5705 18.4341 19.9181C16.7498 21.2656 14.657 21.9998 12.5 22C12.5 22 12.5 22 12.5 22H3.5001L5.14411 18.5125Z" stroke="black"/>
</svg>
