<svg width="25" height="25" viewBox="0 0 25 25" fill="none" xmlns="http://www.w3.org/2000/svg">
<path d="M13.9736 2.91355L13.9736 2.91357L13.9766 2.91052C14.359 2.52147 14.9813 2.51666 15.378 2.90507C15.6159 3.14401 15.7171 3.48219 15.65 3.82037C15.6499 3.82089 15.6498 3.82142 15.6497 3.82194L14.7004 8.39845L14.5756 9H15.19H20.84C22.6297 9 23.8401 10.8321 23.1401 12.4839C23.14 12.4841 23.1398 12.4844 23.1397 12.4847L19.8821 20.0893C19.8818 20.0898 19.8816 20.0904 19.8813 20.091C19.6391 20.6416 19.0972 21 18.5 21H9.5C8.67614 21 8 20.3239 8 19.5V9.51C8 9.1109 8.15852 8.72859 8.43355 8.45355L13.9736 2.91355ZM5 19.5C5 20.3239 4.32386 21 3.5 21C2.67614 21 2 20.3239 2 19.5V11.5C2 10.6761 2.67614 10 3.5 10C4.32386 10 5 10.6761 5 11.5V19.5Z" stroke="black"/>
</svg>
