<svg width="35" height="35" viewBox="0 0 35 35" fill="none" xmlns="http://www.w3.org/2000/svg">
<path d="M17.5 27.7083H5.83331M29.1666 7.29166H24.7916M29.1666 27.7083H23.3333M18.9583 7.29166H5.83331M10.2083 17.5H5.83331M29.1666 17.5H16.0416" stroke="black" stroke-width="1.5" stroke-linecap="round"/>
<path d="M20.4167 24.7917C22.0275 24.7917 23.3333 26.0975 23.3333 27.7083C23.3333 29.3192 22.0275 30.625 20.4167 30.625C18.8058 30.625 17.5 29.3192 17.5 27.7083C17.5 26.0975 18.8058 24.7917 20.4167 24.7917Z" stroke="black" stroke-width="1.5" stroke-linecap="round"/>
<path d="M13.125 14.5833C14.7358 14.5833 16.0416 15.8892 16.0416 17.5C16.0416 19.1108 14.7358 20.4167 13.125 20.4167C11.5141 20.4167 10.2083 19.1108 10.2083 17.5C10.2083 15.8892 11.5141 14.5833 13.125 14.5833Z" stroke="black" stroke-width="1.5" stroke-linecap="round"/>
<path d="M21.875 4.37499C23.4858 4.37499 24.7916 5.68083 24.7916 7.29166C24.7916 8.90249 23.4858 10.2083 21.875 10.2083C20.2641 10.2083 18.9583 8.90249 18.9583 7.29166C18.9583 5.68083 20.2641 4.37499 21.875 4.37499Z" stroke="black" stroke-width="1.5" stroke-linecap="round"/>
</svg>
