<svg width="31" height="31" viewBox="0 0 31 31" fill="none" xmlns="http://www.w3.org/2000/svg">
<path d="M22.8749 11.9375C22.8749 13.3738 22.592 14.7961 22.0424 16.1231C21.4927 17.4501 20.6871 18.6558 19.6714 19.6715C18.6558 20.6871 17.45 21.4928 16.123 22.0424C14.796 22.5921 13.3738 22.875 11.9374 22.875C10.5011 22.875 9.07884 22.5921 7.75184 22.0424C6.42484 21.4928 5.2191 20.6871 4.20346 19.6715C3.18782 18.6558 2.38217 17.4501 1.83251 16.1231C1.28285 14.7961 0.999939 13.3738 0.999939 11.9375C0.999939 9.03669 2.15228 6.2547 4.20346 4.20352C6.25464 2.15234 9.03663 1 11.9374 1C14.8382 1 17.6202 2.15234 19.6714 4.20352C21.7226 6.2547 22.8749 9.03669 22.8749 11.9375Z" stroke="black" stroke-width="1.5"/>
<path d="M25.9999 26L22.8749 22.875" stroke="black" stroke-width="1.5" stroke-linecap="round"/>
</svg>
